<svg width="383" height="120" viewBox="0 0 383 120" fill="none" xmlns="http://www.w3.org/2000/svg">
<path fill-rule="evenodd" clip-rule="evenodd" d="M120.8 31.9L141.3 12.1H161.5L133.9 38L164.3 74.8H144.8L123.2 48L120.8 50.3V74.7H105.7V12.1H120.8V31.9ZM171.6 74.8V12.1H186.8V74.8H171.6ZM343.8 74.8V12.1H359V74.8H343.8ZM229.2 76.4C220.4 76.4 212 72.9 205.8 66.7C199.6 60.5 196.1 52.1 196.1 43.3C196.1 34.5 199.6 26.1 205.8 19.9C212 13.7 220.4 10.2 229.2 10.2C235.8 10.2 242.2 12.2 247.6 15.8V12.1H262.8V74.8H247.6V70.8C242.2 74.4 235.8 76.4 229.2 76.4ZM216.6 56C220 59.4 224.5 61.2 229.2 61.2C234 61.2 238.5 59.3 241.8 56C245.2 52.6 247 48.1 247 43.3C247 38.5 245.1 34 241.8 30.7C238.5 27.4 233.9 25.5 229.2 25.5C224.4 25.5 219.9 27.4 216.6 30.7C213.2 34.1 211.4 38.6 211.4 43.3C211.3 48.1 213.2 52.6 216.6 56ZM303.3 46.7L319.6 12.1H336.5L303.1 78.8L270 12.1H286.8L303.3 46.7Z" fill="#59D8B3"/>
<path fill-rule="evenodd" clip-rule="evenodd" d="M34.7001 37.5L49.7001 50.1V87.5L34.7001 74.8V37.5Z" fill="#59D8B3"/>
<path fill-rule="evenodd" clip-rule="evenodd" d="M83.2001 34.2L42.2001 0L1.20007 34.2V74.8H16.3001V41.3L42.2001 19.6L68.1001 41.3V74.8H83.2001V34.2Z" fill="#97999B"/>
<path d="M12.3 99.9C12.2 98.8 11.7 98 10.9 97.4C10.1 96.8 9.00002 96.4 7.70002 96.4C6.80002 96.4 6.00002 96.6 5.40002 96.9C4.70002 97.2 4.20002 97.6 3.80002 98.2C3.40002 98.8 3.20002 99.3 3.20002 100C3.20002 100.5 3.30002 100.9 3.50002 101.3C3.70002 101.7 4.00002 102 4.40002 102.3C4.80002 102.6 5.20002 102.8 5.60002 103C6.00002 103.2 6.50002 103.4 7.00002 103.5L9.00002 104.1C9.60002 104.3 10.2 104.5 10.8 104.7C11.4 104.9 12 105.3 12.5 105.7C13 106.1 13.4 106.6 13.7 107.1C14 107.6 14.2 108.3 14.2 109.2C14.2 110.2 13.9 111.1 13.4 112C12.9 112.9 12.1 113.5 11.1 113.9C10.1 114.3 8.90002 114.6 7.50002 114.6C6.20002 114.6 5.10002 114.4 4.10002 113.9C3.10002 113.4 2.40002 112.9 1.80002 112.1C1.20002 111.3 0.900024 110.4 0.900024 109.4H2.70002C2.80002 110.2 3.00002 110.8 3.50002 111.3C3.90002 111.8 4.50002 112.2 5.20002 112.5C5.90002 112.8 6.70002 112.9 7.50002 112.9C8.40002 112.9 9.30003 112.7 10.1 112.4C10.9 112.1 11.4 111.6 11.9 111.1C12.4 110.6 12.5 109.9 12.5 109.1C12.5 108.4 12.3 107.9 12 107.5C11.7 107.1 11.2 106.7 10.6 106.4C10 106.1 9.30002 105.8 8.50002 105.6L6.30002 105C4.80002 104.6 3.60002 103.9 2.80002 103.1C2.00002 102.3 1.60002 101.3 1.60002 100.1C1.60002 99.1 1.90002 98.2 2.40002 97.4C2.90002 96.6 3.70002 96 4.60002 95.6C5.50002 95.2 6.60002 94.9 7.80002 94.9C9.00002 94.9 10 95.1 11 95.6C11.9 96 12.6 96.6 13.2 97.4C13.8 98.2 14 99 14.1 100H12.3V99.9Z" fill="#97999B"/>
<path d="M17.5 119.7V99.9H19.1V102.6H19.3C19.5 102.2 19.8 101.7 20.1 101.3C20.4 100.9 20.9 100.5 21.5 100.1C22.1 99.8 22.8 99.6 23.7 99.6C24.9 99.6 25.9 99.9 26.8 100.5C27.7 101.1 28.4 102 28.9 103.1C29.4 104.2 29.6 105.5 29.6 107C29.6 108.5 29.4 109.8 28.8 110.9C28.2 112 27.6 112.9 26.7 113.5C25.8 114.1 24.8 114.4 23.6 114.4C22.7 114.4 22 114.2 21.4 113.9C20.8 113.6 20.4 113.2 20 112.7C19.6 112.2 19.4 111.8 19.2 111.4H19.1V119.5L17.5 119.7ZM19.1 107.1C19.1 108.3 19.3 109.3 19.6 110.2C19.9 111.1 20.5 111.8 21.1 112.3C21.7 112.8 22.5 113.1 23.5 113.1C24.5 113.1 25.3 112.8 25.9 112.3C26.5 111.8 27.1 111.1 27.4 110.2C27.7 109.3 27.9 108.3 27.9 107.2C27.9 106.1 27.7 105.1 27.4 104.2C27.1 103.3 26.6 102.6 25.9 102.1C25.2 101.6 24.4 101.3 23.5 101.3C22.6 101.3 21.8 101.5 21.1 102.1C20.4 102.7 20 103.3 19.6 104.2C19.3 104.9 19.1 106 19.1 107.1Z" fill="#97999B"/>
<path d="M38.5 114.6C37.2 114.6 36 114.3 35 113.7C34 113.1 33.3 112.2 32.7 111.1C32.2 110 31.9 108.7 31.9 107.3C31.9 105.9 32.2 104.6 32.7 103.4C33.2 102.3 34 101.4 34.9 100.7C35.8 100.1 36.9 99.7 38.2 99.7C39 99.7 39.7 99.8 40.4 100.1C41.1 100.4 41.8 100.8 42.4 101.4C43 102 43.4 102.7 43.8 103.6C44.2 104.5 44.3 105.5 44.3 106.7V107.5H33.1V106H42.6C42.6 105.1 42.4 104.2 42 103.5C41.6 102.8 41.1 102.2 40.5 101.7C39.9 101.2 39.1 101 38.2 101C37.3 101 36.5 101.2 35.8 101.7C35.1 102.2 34.6 102.8 34.2 103.6C33.8 104.4 33.6 105.3 33.6 106.2V107.1C33.6 108.2 33.8 109.2 34.2 110.1C34.6 110.9 35.2 111.6 35.9 112.1C36.6 112.6 37.5 112.8 38.5 112.8C39.2 112.8 39.8 112.7 40.3 112.5C40.8 112.3 41.3 112 41.6 111.6C41.9 111.2 42.2 110.8 42.4 110.4L44 110.9C43.8 111.5 43.4 112.1 42.9 112.6C42.4 113.1 41.8 113.5 41.1 113.8C40.3 114.4 39.4 114.6 38.5 114.6Z" fill="#97999B"/>
<path d="M53.1 114.6C51.8 114.6 50.6 114.3 49.6 113.7C48.6 113.1 47.9 112.2 47.3 111.1C46.8 110 46.5 108.7 46.5 107.3C46.5 105.9 46.8 104.6 47.3 103.4C47.8 102.3 48.6 101.4 49.5 100.7C50.4 100.1 51.5 99.7 52.8 99.7C53.6 99.7 54.3 99.8 55 100.1C55.7 100.4 56.4 100.8 57 101.4C57.6 102 58 102.7 58.4 103.6C58.8 104.5 58.9 105.5 58.9 106.7V107.5H47.7V106H57.2C57.2 105.1 57 104.2 56.6 103.5C56.2 102.8 55.7 102.2 55.1 101.7C54.5 101.2 53.7 101 52.8 101C51.9 101 51.1 101.2 50.4 101.7C49.7 102.2 49.2 102.8 48.8 103.6C48.4 104.4 48.2 105.3 48.2 106.2V107.1C48.2 108.2 48.4 109.2 48.8 110.1C49.2 110.9 49.8 111.6 50.5 112.1C51.2 112.6 52.1 112.8 53.1 112.8C53.8 112.8 54.4 112.7 54.9 112.5C55.4 112.3 55.9 112 56.2 111.6C56.5 111.2 56.8 110.8 57 110.4L58.6 110.9C58.4 111.5 58 112.1 57.5 112.6C57 113.1 56.4 113.5 55.7 113.8C55 114.4 54.1 114.6 53.1 114.6Z" fill="#97999B"/>
<path d="M67.2 114.6C66 114.6 65 114.3 64.1 113.7C63.2 113.1 62.5 112.2 62 111.1C61.5 110 61.3 108.7 61.3 107.2C61.3 105.7 61.5 104.4 62 103.3C62.5 102.2 63.2 101.3 64.1 100.7C65 100.1 66 99.8 67.2 99.8C68.1 99.8 68.8001 100 69.4001 100.3C70.0001 100.6 70.4001 101 70.8001 101.5C71.2001 102 71.4 102.4 71.6 102.8H71.8001V95.3H73.5V114.5H71.9001V111.8H71.7C71.5 112.2 71.2001 112.7 70.9001 113.1C70.6001 113.5 70.1 113.9 69.5 114.3C68.8 114.4 68.1 114.6 67.2 114.6ZM67.4001 113.1C68.3001 113.1 69.1001 112.9 69.8001 112.3C70.5001 111.7 71.0001 111.1 71.3001 110.2C71.6001 109.3 71.8001 108.3 71.8001 107.1C71.8001 105.9 71.6001 104.9 71.3001 104.1C71.0001 103.2 70.5001 102.5 69.8001 102C69.1001 101.5 68.4001 101.2 67.4001 101.2C66.4001 101.2 65.6 101.5 65 102C64.3 102.5 63.8 103.2 63.5 104.1C63.2 105 63 106 63 107.1C63 108.2 63.2 109.2 63.5 110.1C63.8 111 64.3 111.7 65 112.2C65.6 112.8 66.4001 113.1 67.4001 113.1Z" fill="#97999B"/>
<path d="M90.0001 99.9V101.3H83.2001V99.9H90.0001ZM85.3001 96.5H87.0001V110.6C87.0001 111.2 87.1001 111.7 87.3001 112C87.5001 112.3 87.8001 112.6 88.1001 112.7C88.4001 112.8 88.8001 112.9 89.2001 112.9C89.4001 112.9 89.6001 112.9 89.8001 112.9C90.0001 112.9 90.1001 112.8 90.2001 112.8L90.6001 114.3C90.4001 114.4 90.2001 114.4 90.0001 114.5C89.8001 114.6 89.5001 114.6 89.1001 114.6C88.5001 114.6 87.9001 114.5 87.3001 114.2C86.7001 113.9 86.3001 113.5 85.9001 113C85.5001 112.5 85.4001 111.8 85.4001 111V96.5H85.3001Z" fill="#97999B"/>
<path d="M98.6 114.6C97.4 114.6 96.3 114.3 95.3 113.7C94.4 113.1 93.6 112.2 93.1 111.1C92.6 110 92.3 108.7 92.3 107.2C92.3 105.7 92.6 104.4 93.1 103.3C93.6 102.2 94.4 101.3 95.3 100.7C96.2 100.1 97.4 99.8 98.6 99.8C99.8 99.8 100.9 100.1 101.9 100.7C102.8 101.3 103.6 102.2 104.1 103.3C104.6 104.4 104.9 105.7 104.9 107.2C104.9 108.7 104.6 109.9 104.1 111.1C103.6 112.2 102.8 113.1 101.9 113.7C100.9 114.3 99.8 114.6 98.6 114.6ZM98.6 113.1C99.6 113.1 100.4 112.8 101.1 112.3C101.8 111.8 102.3 111.1 102.7 110.2C103.1 109.3 103.2 108.3 103.2 107.3C103.2 106.3 103 105.2 102.7 104.4C102.3 103.5 101.8 102.8 101.1 102.2C100.4 101.7 99.6 101.4 98.6 101.4C97.6 101.4 96.8 101.7 96.1 102.2C95.4 102.7 94.9 103.5 94.5 104.4C94.1 105.3 94 106.3 94 107.3C94 108.3 94.2 109.4 94.5 110.2C94.9 111.1 95.4 111.8 96.1 112.3C96.8 112.8 97.6 113.1 98.6 113.1Z" fill="#97999B"/>
<path d="M120.4 114.6C119.1 114.6 118 114.3 117.1 113.6C116.2 112.9 115.4 112.1 114.9 111C114.4 109.9 114.1 108.6 114.1 107.2C114.1 105.8 114.4 104.5 114.9 103.4C115.4 102.3 116.2 101.4 117.1 100.8C118 100.2 119.2 99.8 120.4 99.8C121.4 99.8 122.2 100 123 100.4C123.8 100.8 124.4 101.3 124.9 102C125.4 102.7 125.7 103.4 125.9 104.3H124.2C124 103.5 123.6 102.8 122.9 102.2C122.2 101.6 121.4 101.3 120.4 101.3C119.5 101.3 118.7 101.5 118 102C117.3 102.5 116.8 103.2 116.3 104.1C115.9 105 115.7 106 115.7 107.2C115.7 108.4 115.9 109.4 116.3 110.3C116.7 111.2 117.2 111.9 117.9 112.4C118.6 112.9 119.4 113.2 120.4 113.2C121 113.2 121.6 113.1 122.1 112.8C122.6 112.6 123.1 112.2 123.4 111.8C123.8 111.4 124 110.8 124.1 110.2H125.8C125.7 111.1 125.4 111.8 124.9 112.5C124.4 113.2 123.8 113.7 123 114.1C122.3 114.4 121.4 114.6 120.4 114.6Z" fill="#97999B"/>
<path d="M130.5 95.1V114.3H128.8V95.1H130.5Z" fill="#97999B"/>
<path d="M139.9 114.6C138.7 114.6 137.6 114.3 136.6 113.7C135.7 113.1 134.9 112.2 134.4 111.1C133.9 110 133.6 108.7 133.6 107.2C133.6 105.7 133.9 104.4 134.4 103.3C134.9 102.2 135.7 101.3 136.6 100.7C137.5 100.1 138.7 99.8 139.9 99.8C141.1 99.8 142.2 100.1 143.2 100.7C144.1 101.3 144.9 102.2 145.4 103.3C145.9 104.4 146.2 105.7 146.2 107.2C146.2 108.7 145.9 109.9 145.4 111.1C144.9 112.2 144.1 113.1 143.2 113.7C142.3 114.3 141.1 114.6 139.9 114.6ZM139.9 113.1C140.9 113.1 141.7 112.8 142.4 112.3C143.1 111.8 143.6 111.1 144 110.2C144.4 109.3 144.5 108.3 144.5 107.3C144.5 106.3 144.3 105.2 144 104.4C143.6 103.5 143.1 102.8 142.4 102.2C141.7 101.7 140.9 101.4 139.9 101.4C138.9 101.4 138.1 101.7 137.4 102.2C136.7 102.7 136.2 103.5 135.8 104.4C135.4 105.3 135.3 106.3 135.3 107.3C135.3 108.3 135.5 109.4 135.8 110.2C136.2 111.1 136.7 111.8 137.4 112.3C138 112.8 138.9 113.1 139.9 113.1Z" fill="#97999B"/>
<path d="M158.9 103.1L157.4 103.5C157.3 103.1 157 102.7 156.8 102.3C156.5 102 156.2 101.7 155.7 101.5C155.3 101.3 154.7 101.2 154.1 101.2C153.1 101.2 152.3 101.4 151.7 101.9C151.1 102.4 150.8 103 150.8 103.7C150.8 104.3 151 104.8 151.4 105.2C151.8 105.6 152.5 105.9 153.4 106.1L155.6 106.6C156.8 106.9 157.7 107.4 158.3 108C158.9 108.6 159.2 109.4 159.2 110.4C159.2 111.2 159 111.9 158.5 112.6C158.1 113.2 157.4 113.7 156.6 114.1C155.8 114.5 154.9 114.6 153.8 114.6C152.4 114.6 151.2 114.3 150.3 113.7C149.4 113.1 148.8 112.1 148.5 111L150.1 110.6C150.3 111.4 150.7 112.1 151.3 112.5C151.9 112.9 152.7 113.2 153.7 113.2C154.8 113.2 155.7 113 156.3 112.5C157 112 157.3 111.4 157.3 110.6C157.3 110 157.1 109.5 156.7 109.1C156.3 108.7 155.7 108.4 154.9 108.2L152.5 107.6C151.3 107.3 150.3 106.8 149.7 106.2C149.1 105.6 148.8 104.8 148.8 103.8C148.8 103 149 102.3 149.4 101.7C149.8 101.1 150.4 100.6 151.2 100.3C152 100 152.8 99.8 153.8 99.8C155.1 99.8 156.2 100.1 157 100.7C158 101.2 158.5 102 158.9 103.1Z" fill="#97999B"/>
<path d="M167.9 114.6C166.6 114.6 165.4 114.3 164.4 113.7C163.4 113.1 162.7 112.2 162.1 111.1C161.6 110 161.3 108.7 161.3 107.3C161.3 105.9 161.6 104.6 162.1 103.4C162.6 102.3 163.4 101.4 164.3 100.7C165.2 100.1 166.3 99.7 167.6 99.7C168.4 99.7 169.1 99.8 169.8 100.1C170.5 100.4 171.2 100.8 171.7 101.4C172.2 102 172.7 102.7 173.1 103.6C173.5 104.5 173.6 105.5 173.6 106.7V107.5H162.4V106H171.9C171.9 105.1 171.7 104.2 171.3 103.5C170.9 102.8 170.4 102.2 169.8 101.7C169.2 101.2 168.4 101 167.5 101C166.6 101 165.8 101.2 165.1 101.7C164.4 102.2 163.9 102.8 163.5 103.6C163.1 104.4 162.9 105.3 162.9 106.2V107.1C162.9 108.2 163.1 109.2 163.5 110.1C163.9 110.9 164.5 111.6 165.2 112.1C165.9 112.6 166.8 112.8 167.8 112.8C168.5 112.8 169.1 112.7 169.6 112.5C170.1 112.3 170.5 112 170.9 111.6C171.3 111.2 171.5 110.8 171.7 110.4L173.3 110.9C173.1 111.5 172.7 112.1 172.2 112.6C171.7 113.1 171.1 113.5 170.3 113.8C169.7 114.4 168.9 114.6 167.9 114.6Z" fill="#97999B"/>
<path d="M178.1 114.4C177.7 114.4 177.4 114.3 177.2 114C176.9 113.7 176.8 113.4 176.8 113.1C176.8 112.7 176.9 112.4 177.2 112.2C177.5 111.9 177.8 111.8 178.1 111.8C178.4 111.8 178.8 111.9 179 112.2C179.2 112.5 179.4 112.8 179.4 113.1C179.4 113.3 179.3 113.6 179.2 113.8C179.1 114 178.9 114.2 178.7 114.3C178.6 114.4 178.4 114.4 178.1 114.4Z" fill="#97999B"/>
<path d="M190.4 114.3V95.1H196.6C198 95.1 199.1 95.4 200 95.9C200.9 96.4 201.6 97.1 202.1 98C202.6 98.9 202.8 99.9 202.8 101C202.8 102.1 202.6 103.1 202.1 104C201.6 104.9 201 105.6 200 106.1C199.1 106.6 198 106.9 196.6 106.9H191.7V105.3H196.5C197.5 105.3 198.3 105.1 199 104.7C199.7 104.3 200.1 103.8 200.5 103.1C200.8 102.4 201 101.7 201 100.9C201 100.1 200.8 99.3 200.5 98.7C200.2 98.1 199.7 97.5 199 97.2C198.3 96.9 197.5 96.6 196.5 96.6H192.1V114.2L190.4 114.3Z" fill="#97999B"/>
<path d="M211.4 114.6C210.2 114.6 209.1 114.3 208.1 113.7C207.2 113.1 206.4 112.2 205.9 111.1C205.4 110 205.1 108.7 205.1 107.2C205.1 105.7 205.4 104.4 205.9 103.3C206.4 102.2 207.2 101.3 208.1 100.7C209 100.1 210.2 99.8 211.4 99.8C212.6 99.8 213.7 100.1 214.7 100.7C215.6 101.3 216.4 102.2 216.9 103.3C217.4 104.4 217.7 105.7 217.7 107.2C217.7 108.7 217.4 109.9 216.9 111.1C216.4 112.2 215.6 113.1 214.7 113.7C213.8 114.3 212.6 114.6 211.4 114.6ZM211.4 113.1C212.4 113.1 213.2 112.8 213.9 112.3C214.6 111.8 215.1 111.1 215.5 110.2C215.9 109.3 216 108.3 216 107.3C216 106.3 215.8 105.2 215.5 104.4C215.2 103.6 214.6 102.8 213.9 102.2C213.2 101.7 212.4 101.4 211.4 101.4C210.4 101.4 209.6 101.7 208.9 102.2C208.2 102.7 207.7 103.5 207.3 104.4C206.9 105.3 206.8 106.3 206.8 107.3C206.8 108.3 207 109.4 207.3 110.2C207.6 111 208.2 111.8 208.9 112.3C209.5 112.8 210.4 113.1 211.4 113.1Z" fill="#97999B"/>
<path d="M223.4 114.3L219.1 99.9H220.9L224.3 111.7H224.4L227.8 99.9H229.6L233 111.7H233.1L236.5 99.9H238.3L234 114.3H232.3L228.9 102.5H228.7L225.3 114.3H223.4Z" fill="#97999B"/>
<path d="M246.1 114.6C244.8 114.6 243.6 114.3 242.6 113.7C241.6 113.1 240.9 112.2 240.3 111.1C239.7 110 239.5 108.7 239.5 107.3C239.5 105.9 239.8 104.6 240.3 103.4C240.8 102.2 241.6 101.4 242.5 100.7C243.4 100.1 244.5 99.7 245.8 99.7C246.6 99.7 247.3 99.8 248 100.1C248.7 100.4 249.4 100.8 249.9 101.4C250.4 102 250.9 102.7 251.3 103.6C251.7 104.5 251.8 105.5 251.8 106.7V107.5H240.6V106H250.1C250.1 105.1 249.9 104.2 249.5 103.5C249.1 102.8 248.6 102.2 248 101.7C247.4 101.2 246.6 101 245.7 101C244.8 101 244 101.2 243.3 101.7C242.6 102.2 242.1 102.8 241.7 103.6C241.3 104.4 241.1 105.3 241.1 106.2V107.1C241.1 108.2 241.3 109.2 241.7 110.1C242.1 111 242.7 111.6 243.4 112.1C244.1 112.6 245 112.8 246 112.8C246.7 112.8 247.3 112.7 247.8 112.5C248.3 112.3 248.7 112 249.1 111.6C249.5 111.2 249.7 110.8 249.9 110.4L251.5 110.9C251.3 111.5 250.9 112.1 250.4 112.6C249.9 113.1 249.3 113.5 248.5 113.8C248 114.4 247.1 114.6 246.1 114.6Z" fill="#97999B"/>
<path d="M255 114.3V99.9H256.6V102.1H256.7C257 101.4 257.5 100.8 258.2 100.3C258.9 99.9 259.7 99.6 260.6 99.6C260.7 99.6 260.9 99.6 261.1 99.6C261.3 99.6 261.4 99.6 261.5 99.6V101.3C261.4 101.3 261.3 101.3 261.1 101.2C260.9 101.2 260.7 101.2 260.5 101.2C259.7 101.2 259.1 101.4 258.5 101.7C257.9 102 257.5 102.5 257.1 103C256.7 103.5 256.6 104.2 256.6 104.9V114.2L255 114.3Z" fill="#97999B"/>
<path d="M276.3 99.9V101.3H269.4V99.9H276.3ZM271.5 96.5H273.2V110.6C273.2 111.2 273.3 111.7 273.5 112C273.7 112.3 274 112.6 274.3 112.7C274.6 112.8 275 112.9 275.4 112.9C275.6 112.9 275.8 112.9 276 112.9C276.2 112.9 276.3 112.8 276.4 112.8L276.8 114.3C276.6 114.4 276.4 114.4 276.2 114.5C276 114.6 275.7 114.6 275.3 114.6C274.7 114.6 274.1 114.5 273.5 114.2C272.9 113.9 272.5 113.5 272.1 113C271.7 112.5 271.6 111.8 271.6 111L271.5 96.5Z" fill="#97999B"/>
<path d="M284.9 114.6C283.7 114.6 282.6 114.3 281.6 113.7C280.6 113.1 279.9 112.2 279.4 111.1C278.9 110 278.6 108.7 278.6 107.2C278.6 105.7 278.9 104.4 279.4 103.3C279.9 102.2 280.7 101.3 281.6 100.7C282.6 100.1 283.6 99.8 284.9 99.8C286.1 99.8 287.2 100.1 288.2 100.7C289.2 101.3 289.9 102.2 290.4 103.3C290.9 104.4 291.2 105.7 291.2 107.2C291.2 108.7 290.9 109.9 290.4 111.1C289.9 112.2 289.1 113.1 288.2 113.7C287.2 114.3 286.1 114.6 284.9 114.6ZM284.9 113.1C285.9 113.1 286.7 112.8 287.4 112.3C288.1 111.8 288.6 111.1 289 110.2C289.4 109.3 289.5 108.3 289.5 107.3C289.5 106.3 289.3 105.2 289 104.4C288.7 103.6 288.1 102.8 287.4 102.2C286.7 101.7 285.9 101.4 284.9 101.4C283.9 101.4 283.1 101.7 282.4 102.2C281.7 102.7 281.2 103.5 280.8 104.4C280.4 105.3 280.3 106.3 280.3 107.3C280.3 108.3 280.5 109.4 280.8 110.2C281.1 111 281.7 111.8 282.4 112.3C283 112.8 283.9 113.1 284.9 113.1Z" fill="#97999B"/>
<path d="M310.7 103.1L309.2 103.5C309.1 103.1 308.8 102.7 308.6 102.3C308.3 102 308 101.7 307.5 101.5C307.1 101.3 306.5 101.2 305.9 101.2C304.9 101.2 304.1 101.4 303.5 101.9C302.9 102.4 302.6 103 302.6 103.7C302.6 104.3 302.8 104.8 303.2 105.2C303.6 105.6 304.3 105.9 305.2 106.1L307.4 106.6C308.6 106.9 309.5 107.4 310.1 108C310.7 108.6 311 109.4 311 110.4C311 111.2 310.8 111.9 310.3 112.6C309.8 113.2 309.2 113.7 308.4 114.1C307.6 114.5 306.7 114.6 305.6 114.6C304.2 114.6 303 114.3 302.1 113.7C301.2 113.1 300.6 112.1 300.3 111L301.9 110.6C302.1 111.4 302.5 112.1 303.1 112.5C303.7 112.9 304.5 113.2 305.5 113.2C306.6 113.2 307.5 113 308.1 112.5C308.8 112 309.1 111.4 309.1 110.6C309.1 110 308.9 109.5 308.5 109.1C308.1 108.7 307.5 108.4 306.7 108.2L304.3 107.6C303.1 107.3 302.1 106.8 301.5 106.2C300.9 105.6 300.6 104.8 300.6 103.8C300.6 103 300.8 102.3 301.2 101.7C301.6 101.1 302.2 100.6 303 100.3C303.8 100 304.6 99.8 305.6 99.8C306.9 99.8 308 100.1 308.8 100.7C309.8 101.2 310.3 102 310.7 103.1Z" fill="#97999B"/>
<path d="M319.5 114.6C318.2 114.6 317.1 114.3 316.1 113.6C315.1 112.9 314.4 112.1 313.9 111C313.4 109.9 313.1 108.6 313.1 107.2C313.1 105.8 313.4 104.5 313.9 103.4C314.4 102.3 315.2 101.4 316.1 100.8C317 100.2 318.1 99.8 319.4 99.8C320.4 99.8 321.2 100 322 100.4C322.8 100.8 323.4 101.3 323.9 102C324.4 102.7 324.7 103.4 324.9 104.3H323.2C323 103.5 322.6 102.8 321.9 102.2C321.2 101.6 320.4 101.3 319.4 101.3C318.5 101.3 317.7 101.5 317 102C316.3 102.5 315.8 103.2 315.4 104.1C315 105 314.8 106 314.8 107.2C314.8 108.4 315 109.4 315.4 110.3C315.8 111.2 316.3 111.9 317 112.4C317.7 112.9 318.5 113.2 319.5 113.2C320.1 113.2 320.7 113.1 321.2 112.8C321.7 112.6 322.2 112.2 322.5 111.8C322.8 111.4 323.1 110.8 323.2 110.2H324.9C324.8 111.1 324.5 111.8 324 112.5C323.5 113.2 322.9 113.7 322.1 114.1C321.4 114.4 320.5 114.6 319.5 114.6Z" fill="#97999B"/>
<path d="M332 114.6C331.1 114.6 330.3 114.4 329.6 114.1C328.9 113.8 328.3 113.3 327.9 112.6C327.5 111.9 327.3 111.2 327.3 110.3C327.3 109.6 327.4 109 327.7 108.5C328 108 328.3 107.6 328.8 107.3C329.3 107 329.9 106.7 330.6 106.6C331.3 106.5 332 106.3 332.8 106.2C333.6 106.1 334.3 106 334.8 105.9C335.4 105.8 335.8 105.7 336.1 105.5C336.4 105.3 336.5 105.1 336.5 104.7V104.4C336.5 103.4 336.2 102.6 335.6 102.1C335 101.5 334.2 101.3 333.1 101.3C332.1 101.3 331.2 101.5 330.6 102C330 102.5 329.5 103 329.2 103.6L327.6 103C327.9 102.2 328.4 101.6 329 101.1C329.6 100.6 330.2 100.3 330.9 100.1C331.6 99.9 332.3 99.8 333.1 99.8C333.6 99.8 334.2 99.9 334.8 100C335.4 100.1 335.9 100.4 336.5 100.7C337.1 101 337.4 101.5 337.7 102.2C338 102.8 338.2 103.6 338.2 104.6V114.4H336.5V112H336.4C336.2 112.4 335.9 112.8 335.5 113.2C335.1 113.6 334.6 113.9 334 114.2C333.5 114.5 332.8 114.6 332 114.6ZM332.2 113.1C333.1 113.1 333.8 112.9 334.5 112.5C335.2 112.1 335.6 111.6 336 110.9C336.4 110.2 336.5 109.5 336.5 108.7V106.6C336.4 106.7 336.2 106.8 335.9 106.9C335.6 107 335.3 107.1 334.9 107.1C334.5 107.1 334.1 107.2 333.8 107.3C333.4 107.4 333.1 107.4 332.8 107.4C332 107.5 331.3 107.7 330.7 107.9C330.1 108.1 329.7 108.4 329.4 108.8C329.1 109.2 328.9 109.6 328.9 110.2C328.9 111.1 329.2 111.8 329.8 112.2C330.4 112.6 331.3 113.1 332.2 113.1Z" fill="#97999B"/>
<path d="M343.7 95.1V114.3H342V95.1H343.7Z" fill="#97999B"/>
<path d="M353.3 114.6C352 114.6 350.8 114.3 349.8 113.7C348.8 113.1 348.1 112.2 347.5 111.1C346.9 110 346.7 108.7 346.7 107.3C346.7 105.9 347 104.6 347.5 103.4C348 102.2 348.8 101.4 349.7 100.7C350.6 100.1 351.7 99.7 353 99.7C353.8 99.7 354.5 99.8 355.2 100.1C355.9 100.4 356.6 100.8 357.2 101.4C357.8 102 358.2 102.7 358.6 103.6C359 104.5 359.1 105.5 359.1 106.7V107.5H347.9V106H357.4C357.4 105.1 357.2 104.2 356.8 103.5C356.4 102.8 355.9 102.2 355.3 101.7C354.7 101.2 353.9 101 353 101C352.1 101 351.3 101.2 350.6 101.7C349.9 102.2 349.4 102.8 349 103.6C348.6 104.4 348.4 105.3 348.4 106.2V107.1C348.4 108.2 348.6 109.2 349 110.1C349.4 111 350 111.6 350.7 112.1C351.4 112.6 352.3 112.8 353.3 112.8C354 112.8 354.6 112.7 355.1 112.5C355.6 112.3 356.1 112 356.4 111.6C356.8 111.2 357 110.8 357.2 110.4L358.8 110.9C358.6 111.5 358.2 112.1 357.7 112.6C357.2 113.1 356.6 113.5 355.8 113.8C355.1 114.4 354.2 114.6 353.3 114.6Z" fill="#97999B"/>
<path d="M363.5 114.4C363.1 114.4 362.8 114.3 362.5 114C362.2 113.7 362.1 113.4 362.1 113.1C362.1 112.7 362.2 112.4 362.5 112.2C362.8 111.9 363.1 111.8 363.5 111.8C363.9 111.8 364.2 111.9 364.5 112.2C364.8 112.5 364.9 112.8 364.9 113.1C364.9 113.3 364.8 113.6 364.7 113.8C364.6 114 364.4 114.2 364.2 114.3C364 114.4 363.7 114.4 363.5 114.4Z" fill="#97999B"/>
<path d="M376.1 25.4C375.2 25.4 374.3 25.2 373.5 24.9C372.7 24.6 372 24.1 371.4 23.5C370.8 22.9 370.3 22.2 370 21.4C369.7 20.6 369.5 19.7 369.5 18.8C369.5 17.9 369.7 17 370 16.2C370.3 15.4 370.8 14.7 371.4 14.1C372 13.5 372.7 13 373.5 12.7C374.3 12.4 375.2 12.2 376.1 12.2C377 12.2 377.9 12.4 378.7 12.7C379.5 13 380.2 13.5 380.8 14.1C381.4 14.7 381.9 15.4 382.2 16.2C382.5 17 382.7 17.9 382.7 18.8C382.7 19.7 382.5 20.6 382.2 21.4C381.9 22.2 381.4 22.9 380.8 23.5C380.2 24.1 379.5 24.6 378.7 24.9C377.9 25.2 377.1 25.4 376.1 25.4ZM376.1 23.8C377 23.8 377.9 23.6 378.6 23.1C379.4 22.6 380 22 380.4 21.3C380.9 20.5 381.1 19.7 381.1 18.8C381.1 17.9 380.9 17 380.4 16.3C379.9 15.5 379.3 14.9 378.6 14.5C377.8 14 377 13.8 376.1 13.8C375.2 13.8 374.3 14 373.6 14.5C372.8 15 372.2 15.6 371.8 16.3C371.3 17.1 371.1 17.9 371.1 18.8C371.1 19.7 371.3 20.6 371.8 21.3C372.3 22.1 372.9 22.7 373.6 23.1C374.4 23.6 375.2 23.8 376.1 23.8ZM373.8 21.7V15.6H376.9C377.1 15.6 377.4 15.7 377.7 15.8C378 15.9 378.2 16.2 378.5 16.4C378.7 16.7 378.8 17.1 378.8 17.5C378.8 17.9 378.7 18.3 378.5 18.6C378.3 18.9 378 19.1 377.7 19.3C377.4 19.5 377.1 19.5 376.8 19.5H374.6V18.5H376.4C376.6 18.5 376.8 18.4 377 18.2C377.2 18 377.3 17.7 377.3 17.4C377.3 17 377.2 16.8 377 16.6C376.8 16.5 376.6 16.4 376.4 16.4H375.1V21.5H373.8V21.7ZM377.5 18.9L379 21.8H377.5L376 18.9H377.5Z" fill="#59D8B3"/>
</svg>
